Coordinates
version=1
nRows=14
nColumns=36
inDegrees=yes

Units are S.I. units (second, meters, Newtons, ...)
If the header above contains a line with 'inDegrees', this indicates whether rotational values are in degrees (yes) or radians (no).

endheader
time	pelvis_tilt	pelvis_list	pelvis_rotation	pelvis_tx	pelvis_ty	pelvis_tz	hip_flexion_r	hip_adduction_r	hip_rotation_r	knee_angle_r	knee_angle_r_beta	ankle_angle_r	subtalar_angle_r	mtp_angle_r	hip_flexion_l	hip_adduction_l	hip_rotation_l	knee_angle_l	knee_angle_l_beta	ankle_angle_l	subtalar_angle_l	mtp_angle_l	lumbar_extension	lumbar_bending	lumbar_rotation	arm_flex_r	arm_add_r	arm_rot_r	elbow_flex_r	pro_sup_r	arm_flex_l	arm_add_l	arm_rot_l	elbow_flex_l	pro_sup_l
      3.48333330	     -5.27160332	      0.65334060	    -14.03325658	      1.05181919	      0.83029312	      0.12245327	     29.54039491	     -3.74680441	     -0.87503692	     67.97029515	      1.18630544	     39.52098315	     -3.08767893	     -7.49999987	     32.68206325	     -1.46185781	      2.78511266	     74.91476527	      1.30750931	     34.47797826	    -11.20375322	     -7.49999987	     -2.18869463	     -2.03193519	      1.39152472	     -8.06878725	    -17.72128148	     26.96733943	     24.82090579	     72.51103991	      3.61009536	    -14.22881206	     27.27886283	     21.07358632	     72.31025155
      3.50000000	     -5.73323857	      0.76124158	    -14.12383006	      1.04425393	      0.83411783	      0.12500554	     29.62885520	     -4.06283304	     -1.52130606	     66.69604758	      1.16406563	     39.45077062	     -3.02275092	     -7.49999987	     32.64710913	     -1.79861105	      2.44256671	     73.51395200	      1.28306051	     34.30370603	    -11.03414625	     -7.49999987	     -1.44680013	     -1.84644316	      1.56429867	     -6.41530392	    -17.26080708	     26.95943725	     25.27705260	     72.55836293	      4.96931888	    -13.42758547	     27.38182687	     21.50709538	     72.38843906
      3.51666670	     -5.24553345	      0.41333963	    -14.00709435	      1.03882275	      0.83740030	      0.12265801	     28.64548372	     -4.26245938	     -2.52184394	     65.19420643	      1.13785356	     38.90204951	     -2.61076826	     -7.49999987	     31.33574477	     -2.43860494	      2.00040006	     71.35570335	      1.24539196	     33.96367741	    -10.15913477	     -7.49999987	     -1.94213911	     -1.42390355	      1.80953370	     -3.78060185	    -16.60479508	     28.42276600	     23.45738841	     73.63970083	      7.42010470	    -12.20348558	     29.84497618	     19.36867438	     73.95343409
      3.53333330	     -5.67080809	      0.54942680	    -13.80442879	      1.03990260	      0.83663879	      0.11799665	     29.04767864	     -4.76083732	     -3.25874599	     64.44737592	      1.12481890	     38.41704409	     -2.31844711	     -7.49999987	     31.14233274	     -2.69016262	      1.44871784	     69.57860025	      1.21437566	     33.64706201	     -9.69521074	     -7.49999987	     -1.27013660	     -1.27556002	      1.89194315	     -2.25303236	    -16.65954327	     28.47109741	     24.21557560	     73.80780667	      8.42366936	    -11.38568032	     30.32546097	     20.12851056	     74.23938475
      3.55000000	     -5.74580616	      0.52770549	    -13.45637343	      1.02925616	      0.84868047	      0.11513423	     28.81105052	     -5.02290161	     -3.98277099	     62.65653929	      1.09356291	     37.69102119	     -2.08669067	     -7.49999987	     30.65321019	     -2.90158592	      0.97638703	     67.50597282	      1.17820149	     32.91993011	     -9.18392295	     -7.49999987	     -1.45454510	     -0.87107114	      1.77523309	     -0.51577250	    -17.51381077	     29.78216764	     26.89088386	     74.12374862	      9.68039554	    -11.69118781	     34.51290026	     22.90635182	     74.89523788
      3.56666670	     -6.35684779	      0.49830216	    -13.25106540	      1.02574339	      0.85315371	      0.11078437	     29.19477377	     -5.19874018	     -4.83027554	     61.03872453	      1.06532671	     36.76354569	     -1.84955485	     -7.49999987	     30.95131735	     -3.14982758	      0.64784399	     65.89099215	      1.15001476	     31.84170565	     -9.12509037	     -7.49999987	     -1.27419705	     -0.21214950	      1.40856900	      0.66413515	    -18.52306732	     29.26183590	     30.52403115	     72.78083583	     10.36727903	    -11.72441055	     34.93308175	     26.71109092	     73.48502552
      3.58333330	     -6.11726418	      0.50081208	    -12.93491286	      1.03175096	      0.86454957	      0.10950381	     27.88186579	     -5.42087196	     -5.39050666	     58.41682237	      1.01956589	     35.22271798	     -1.98208615	     -7.49999987	     29.72233438	     -2.90919438	      0.47222756	     63.61016289	      1.11020678	     30.40120710	     -9.73998608	     -7.49999987	     -1.50971926	      0.12828174	      0.81624047	      1.74365934	    -19.38676385	     29.32526708	     33.53325124	     73.29119335	     11.27957972	    -11.97333305	     36.43471221	     30.13384446	     73.79754165
      3.60000000	     -5.90448277	      0.43193169	    -12.70883849	      1.03143957	      0.87735982	      0.11462707	     26.30556668	     -5.31289209	     -5.97745740	     55.44103460	      0.96762859	     33.61102073	     -2.02604060	     -7.49999987	     28.21339931	     -2.97057910	      0.21035954	     61.05727705	      1.06565052	     29.12159994	     -9.70270927	     -7.49999987	     -1.51013418	      0.36496534	      0.50393827	      2.52847589	    -20.22701449	     29.19630027	     37.18347134	     73.25691676	     11.81378606	    -12.67831893	     38.12205430	     34.56707255	     72.38138054
      3.61666670	     -5.80801720	      0.33572756	    -12.64280169	      1.02705060	      0.88454012	      0.11111133	     25.22109953	     -5.12654622	     -6.36200632	     52.89494597	      0.92319096	     31.76791652	     -2.74241290	     -7.49999987	     27.16554517	     -3.10069248	     -0.13741097	     58.96289713	      1.02909669	     27.90422277	     -9.73844537	     -7.49999987	     -1.58324447	      0.63378551	      0.23546755	      3.49917977	    -21.14743339	     29.14915843	     40.37138089	     73.43098070	     13.03885375	    -12.91628929	     38.86332822	     38.36369281	     71.97172271
      3.63333330	     -6.10202689	      0.28831408	    -12.38927527	      1.02125652	      0.88823481	      0.11296831	     24.81012135	     -4.90623067	     -6.79715281	     50.97393187	      0.88966294	     30.92586300	     -2.69431905	     -7.49999987	     26.88551894	     -3.30309144	     -0.40253067	     57.24160715	      0.99905451	     27.35225470	     -9.36531249	     -7.49999987	     -1.48779245	      0.75464902	      0.10549994	      3.95162297	    -22.45288384	     29.27709677	     45.31253197	     73.43847439	     14.37480370	    -13.73720371	     40.21601948	     43.93696986	     71.23182940
      3.65000000	     -6.57153134	      0.45405793	    -12.24867792	      1.01728066	      0.88981451	      0.10957700	     25.15712864	     -4.89946338	     -6.93819032	     49.88190818	      0.87060353	     30.23871481	     -2.72895934	     -7.49999987	     27.06311707	     -3.31354945	     -0.80387734	     55.71404096	      0.97239345	     27.05074643	     -8.89787064	     -7.49999987	     -1.06943849	      0.71615687	      0.24254377	      4.16474150	    -23.80166672	     29.08510957	     51.12310625	     72.24798091	     15.76884193	    -14.59990001	     41.18755999	     50.05961246	     69.58030102
      3.66666670	     -6.62102677	      0.56549205	    -11.98590337	      1.01210091	      0.89677025	      0.11095469	     25.07298493	     -4.88462086	     -7.12694780	     48.71254572	      0.85019431	     29.58116391	     -2.60504990	     -7.49999987	     26.45900289	     -3.24262818	     -0.98992277	     53.59847139	      0.93546980	     26.60613327	     -8.63098611	     -7.49999987	     -0.99962960	      0.46853089	      2.28669275	      2.19511479	    -24.85850535	     25.17314649	     57.98779004	     70.97303032	     19.78324213	    -14.85640027	     47.49871437	     54.22801802	     60.82598394
      3.68333330	     -6.56770163	      0.62999949	    -11.78212607	      1.00766491	      0.91338418	      0.10797850	     24.25725851	     -4.77845224	     -7.36854475	     46.17653343	      0.80593255	     27.91966901	     -2.41777833	     -7.49999987	     25.20220717	     -3.14051763	     -1.26424018	     50.40766818	      0.87977978	     25.21055883	     -8.47777139	     -7.49999987	     -0.92671792	      0.44743656	      2.16850085	      3.03652771	    -25.41884133	     25.24646356	     61.94352701	     70.47232903	     21.43189971	    -15.37160658	     47.59593321	     58.68283017	     60.75159153
      3.70000000	     -6.54909334	      0.67586689	    -11.70158699	      1.00807713	      0.92327660	      0.10782980	     23.03189041	     -4.56806015	     -7.57844799	     43.07545251	      0.75180847	     25.91535468	     -2.42954139	     -7.49999987	     23.76286520	     -3.08650671	     -1.59761918	     47.05669325	      0.82129423	     23.19935621	     -8.48680781	     -7.49999987	     -0.70412959	      0.46740896	      2.17731690	      3.18903560	    -25.92365981	     25.56978228	     65.48722707	     70.72285493	     23.09705755	    -15.64473715	     48.05044571	     62.35544791	     60.90117444
